#!OML:ASF F:\VICON\USERDATA\INSTALL\rory3\rory3.ASF
:FULLY-SPECIFIED
:DEGREES
72
root 0.5418019317332499 17.722474769579243 35.00261937681299 -2.8935533958281594 1.3559149453563752 -1.557080625537384
lfemur 10.872447807092708 -5.3958770136854355 -20.673495742135
ltibia 41.73034558208868
lfoot 9.470122515726759 -16.526166972312872
ltoes -15.53220516277645
rfemur -27.28694404659081 4.50433560698074 24.607848366196595
rtibia 29.26628400450825
rfoot -2.639617207070315 -5.352495588964901
rtoes 9.83064739183212
lowerback 9.798198524993126 -1.8130065796719146 -1.371040689367945
upperback 0.22259903212582371 -2.4224490825498184 2.9461288662843534
thorax -5.204861945054343 -1.1197248563749964 4.0527417241348145
lowerneck -16.23832526552983 -2.1885829479335412 -2.5705690115748645
upperneck 19.837223275314454 -2.470758963661156 0.3503675267210502
head 8.915082679283518 -1.3028357746475479 0.20646044842891356
lclavicle -1.5976571155861644e-15 -1.303041037440424e-15
lhumerus -23.58247905206591 -1.8716860972973544 80.9663318664584
lradius 28.587886465349023
lwrist 7.081345802751541
lhand -30.524554845877805 20.666807317782883
lfingers 7.125020000000055
lthumb -3.8237252180237524 50.61054141580381
rclavicle -1.5976571155861644e-15 -1.303041037440424e-15
rhumerus -41.67963544082612 -33.897679001816456 -67.56180481552921
rradius 15.562378230235929
rwrist 15.313736079845466
rhand -17.3451424622005 30.088699208208382
rfingers 7.125020000000055
rthumb 8.902578144911606 -6.714680690829794
73
root 0.5096049130188538 17.83479904171187 35.8388231008951 -3.3251849390712276 1.329510543455969 -2.856904849467173
lfemur 5.708663933343843 -4.3125286986555444 -18.042447669273763
ltibia 53.59360410470339
lfoot 15.863755231461173 -18.655634601155445
ltoes -9.512344583028145
rfemur -23.883791718658383 4.951353664757516 26.898576709498393
rtibia 30.593691291094878
rfoot -4.133312581518146 -5.418528152282336
rtoes 12.87292530647773
lowerback 10.027186937667004 -1.6732767077944932 -0.1614280676681492
upperback 0.26082582514089697 -2.091672939796027 3.2436317470277203
thorax -5.294321714206807 -0.9792034223684624 3.6764819669401243
lowerneck -15.882350679970001 -2.2401768983410433 -2.54253267151864
upperneck 20.03669501551032 -2.5650719295253106 0.4202739868451293
head 8.915143457489169 -1.3462824085865226 0.21631808473800326
lclavicle -1.2162148887711827e-15 -1.007689222384032e-15
lhumerus -24.600521757070865 -1.7259245016756468 81.86188216456668
lradius 28.786330665500714
lwrist 6.4385944609179955
lhand -29.793048292312022 21.31538142693078
lfingers 7.125020000000056
lthumb -3.117322973969023 51.26139564930988
rclavicle -1.2162148887711827e-15 -1.007689222384032e-15
rhumerus -41.00186912147718 -32.597875167273926 -68.30889461788834
rradius 16.76229980800899
rwrist 14.560365181890809
rhand -17.231137504107906 30.233231219074575
rfingers 7.125020000000056
rthumb 9.012697168161502 -6.261336148402834
74
root 0.45472135337334746 17.922508129016222 35.7982912064291 -3.7446514722582096 0.9789160768029759 -3.9927470365894253
lfemur -0.7092461494405011 -3.035898763370061 -16.185903610430586
ltibia 62.75644474048104
lfoot 16.507926929706276 -18.657896535840564
ltoes -5.816861862400901
rfemur -20.977414863534364 5.296990920232981 28.542752662555575
rtibia 29.616323981696663
rfoot -6.819617678382205 -6.119370727008381
rtoes 13.670346071654013
lowerback 10.092677572285233 -1.4621238534535927 0.6835304193583075
upperback 0.3007176079137271 -1.7114984798782689 3.325254090108302
thorax -5.39669309877631 -0.8076167271114402 3.1189444715643853
lowerneck -15.639339384370055 -2.4136280957670144 -2.5640978351839427
upperneck 19.994074604542018 -2.854856672701373 0.5344214509440728
head 8.856189119751235 -1.465568133233442 0.23387176958438352
lclavicle -1.7354789562731489e-15 -1.409756892542046e-15
lhumerus -26.028559584878167 -1.9945996226202043 82.31773522940485
lradius 27.14261928235939
lwrist 5.03832157442694
lhand -29.49752203021023 21.037216877909913
lfingers 7.125020000000055
lthumb -2.831921031208557 50.98855917263041
rclavicle -1.7354789562731489e-15 -1.409756892542046e-15
rhumerus -40.00156338247186 -30.968527005489307 -70.54405102011766
rradius 16.7857438744129
rwrist 12.618717871823424
rhand -17.176501677977786 30.0173855239605
rfingers 7.125020000000055
rthumb 9.065516275996078 -6.201413701672725
75
root 0.44276968727196925 18.00274000997903 36.72467720750299 -3.891804658304709 0.6104907987975312 -4.643595925043169
lfemur -6.131946556981943 -1.3797955707513017 -14.677407076045139
ltibia 71.00573095348419
lfoot 13.109805529648472 -16.413685133086624
ltoes -4.901474639312642
rfemur -17.300517626812702 5.713341666021673 30.14771497193377
rtibia 29.48831648899823
rfoot -8.957686776637699 -6.59696601363862
rtoes 13.785069191431296
lowerback 10.257756753761267 -1.0683302250416404 1.5309086551352213
upperback 0.4036738292742668 -1.0922464609697005 3.3076167545456885
thorax -5.3359389943831435 -0.5243652589969076 2.6192941404441914
lowerneck -15.335476710792788 -2.5551825068285066 -2.561369534855262
upperneck 20.191857171055542 -3.0980568487674454 0.7881243364025148
head 8.874109384663665 -1.5623423940073145 0.29364336071526653
lclavicle -1.1978160289107548e-15 -9.934429355784856e-16
lhumerus -26.641089403176622 -1.5853008586299215 82.86668208222592
lradius 27.58906425623038
lwrist 4.619283646174614
lhand -29.38974430483505 20.887587097100557
lfingers 7.125020000000056
lthumb -2.7278099173882726 50.847031358377684
rclavicle -1.1978160289107548e-15 -9.934429355784856e-16
rhumerus -37.834362129896974 -28.02267578787996 -72.66144362904657
rradius 19.12304103306395
rwrist 11.055999876748213
rhand -17.032942394535404 30.167987140080147
rfingers 7.125020000000056
rthumb 9.204087114119378 -5.970549073734973
76
root 0.418531512927454 18.03384518755803 36.822292335581594 -4.0652438724768425 -0.13849479070302362 -5.247380249820106
lfemur -11.991358573950682 0.145067727013646 -13.969346653437501
ltibia 75.16134971703619
lfoot 6.685689424353557 -13.573593081193518
ltoes -6.605819634006892
rfemur -14.550106665611922 5.887936808141738 31.225116217824976
rtibia 28.35268861343239
rfoot -11.630226808497634 -7.010403339298229
rtoes 12.989322668195433
lowerback 10.268677291911166 -0.6396185897943262 2.1780838654682673
upperback 0.4625456448018898 -0.4496136090775925 3.125471239068625
thorax -5.328264732680081 -0.22665677732070522 1.9006814890967179
lowerneck -15.188516453911127 -2.7185094781483814 -2.5671090336517244
upperneck 20.18770657526204 -3.3686187253964883 0.9271274431807502
head 8.849096131227238 -1.6705294309024825 0.31673006537563403
lclavicle -1.541566134284627e-15 -1.2596096353646536e-15
lhumerus -27.987109859236902 -1.0834323094616443 82.85553326135941
lradius 26.589158935465804
lwrist 4.177892050900098
lhand -29.660218713856406 19.996451784755415
lfingers 7.125020000000055
lthumb -2.9889643540423165 49.964440328544484
rclavicle -1.541566134284627e-15 -1.2596096353646536e-15
rhumerus -35.947643460842905 -25.386546335198314 -75.3032088896732
rradius 20.08786707278658
rwrist 8.949762326039714
rhand -17.018731180165474 29.901047810558698
rfingers 7.125020000000055
rthumb 9.21776481172721 -6.461403384236469
77
root 0.4306201634883271 18.043563616397666 37.69722258918815 -4.015961866642287 -0.8485986102424976 -5.629919773466069
lfemur -16.675649586505774 1.5801581179483988 -13.41970141479488
ltibia 77.18401290959622
lfoot 0.747030768286141 -10.211212454726624
ltoes -8.288239472458502
rfemur -11.451848032280832 6.072228713935216 32.315178207866694
rtibia 28.37829074800262
rfoot -13.728341701482671 -7.112775314467052
rtoes 12.643782518174746
lowerback 10.376593844913835 -0.1284027479528429 2.9940027646127456
upperback 0.523253522065575 0.32088888957669637 2.9265150236621382
thorax -5.254604618229266 0.12732580864755566 1.191198835065004
lowerneck -15.088330085574622 -2.8009933267842713 -2.521563823084181
upperneck 20.288537246143015 -3.5072450563268784 1.0617099532613703
head 8.868642525062326 -1.7247221047243322 0.33830796469728924
lclavicle -1.116467370801516e-15 -9.304544350013148e-16
lhumerus -28.9258261093754 0.08807919126274966 82.84827107796946
lradius 27.099531731036933
lwrist 4.771912467836351
lhand -29.877728321179774 19.52279943693085
lfingers 7.125020000000056
lthumb -3.198987326104182 49.49714720949839
rclavicle -1.116467370801516e-15 -9.304544350013148e-16
rhumerus -33.51575279933277 -21.922575333827137 -77.36977130754639
rradius 22.758736027618284
rwrist 7.040135811235399
rhand -17.02876395081845 29.89486567269809
rfingers 7.125020000000056
rthumb 9.208047111809357 -6.902151319275946
